<mxfile host="app.diagrams.net" modified="2020-11-06T17:29:25.534Z" agent="5.0 (Windows NT 10.0; Win64; x64) AppleWebKit/537.36 (KHTML, like Gecko) Chrome/86.0.4240.183 Safari/537.36" etag="zZ0G8NVM2Zr9FVg2QC30" version="13.8.8" type="github">
  <diagram id="C5RBs43oDa-KdzZeNtuy" name="Page-1">
    <mxGraphModel dx="1240" dy="1858" grid="1" gridSize="10" guides="1" tooltips="1" connect="1" arrows="1" fold="1" page="1" pageScale="1" pageWidth="827" pageHeight="1169" math="0" shadow="0">
      <root>
        <mxCell id="WIyWlLk6GJQsqaUBKTNV-0" />
        <mxCell id="WIyWlLk6GJQsqaUBKTNV-1" parent="WIyWlLk6GJQsqaUBKTNV-0" />
        <mxCell id="c1hgDJfM4Zuwyvj8cAt_-3" value="&lt;p style=&quot;margin: 0px ; margin-top: 4px ; margin-left: 5px ; text-align: left&quot;&gt;&lt;b&gt;System komputerowy&lt;/b&gt;&lt;/p&gt;" style="html=1;shape=mxgraph.sysml.package;overflow=fill;labelX=152;align=left;spacingLeft=5;verticalAlign=top;spacingTop=-3;" parent="WIyWlLk6GJQsqaUBKTNV-1" vertex="1">
          <mxGeometry x="120" y="-50" width="900" height="620" as="geometry" />
        </mxCell>
        <mxCell id="c1hgDJfM4Zuwyvj8cAt_-4" value="Osoba" style="swimlane;fontStyle=1;align=center;verticalAlign=top;childLayout=stackLayout;horizontal=1;startSize=26;horizontalStack=0;resizeParent=1;resizeParentMax=0;resizeLast=0;collapsible=1;marginBottom=0;" parent="WIyWlLk6GJQsqaUBKTNV-1" vertex="1">
          <mxGeometry x="230" y="40" width="160" height="130" as="geometry" />
        </mxCell>
        <mxCell id="c1hgDJfM4Zuwyvj8cAt_-5" value="+ imię:&#xa;+ nazwisko:&#xa;+ adres:&#xa;+ telefon:" style="text;strokeColor=none;fillColor=none;align=left;verticalAlign=top;spacingLeft=4;spacingRight=4;overflow=hidden;rotatable=0;points=[[0,0.5],[1,0.5]];portConstraint=eastwest;" parent="c1hgDJfM4Zuwyvj8cAt_-4" vertex="1">
          <mxGeometry y="26" width="160" height="74" as="geometry" />
        </mxCell>
        <mxCell id="c1hgDJfM4Zuwyvj8cAt_-6" value="" style="line;strokeWidth=1;fillColor=none;align=left;verticalAlign=middle;spacingTop=-1;spacingLeft=3;spacingRight=3;rotatable=0;labelPosition=right;points=[];portConstraint=eastwest;" parent="c1hgDJfM4Zuwyvj8cAt_-4" vertex="1">
          <mxGeometry y="100" width="160" height="30" as="geometry" />
        </mxCell>
        <mxCell id="c1hgDJfM4Zuwyvj8cAt_-8" value="Klient" style="swimlane;fontStyle=1;align=center;verticalAlign=top;childLayout=stackLayout;horizontal=1;startSize=26;horizontalStack=0;resizeParent=1;resizeParentMax=0;resizeLast=0;collapsible=1;marginBottom=0;" parent="WIyWlLk6GJQsqaUBKTNV-1" vertex="1">
          <mxGeometry x="140" y="230" width="160" height="60" as="geometry" />
        </mxCell>
        <mxCell id="c1hgDJfM4Zuwyvj8cAt_-10" value="" style="line;strokeWidth=1;fillColor=none;align=left;verticalAlign=middle;spacingTop=-1;spacingLeft=3;spacingRight=3;rotatable=0;labelPosition=right;points=[];portConstraint=eastwest;" parent="c1hgDJfM4Zuwyvj8cAt_-8" vertex="1">
          <mxGeometry y="26" width="160" height="34" as="geometry" />
        </mxCell>
        <mxCell id="c1hgDJfM4Zuwyvj8cAt_-12" value="Serwisant " style="swimlane;fontStyle=1;align=center;verticalAlign=top;childLayout=stackLayout;horizontal=1;startSize=26;horizontalStack=0;resizeParent=1;resizeParentMax=0;resizeLast=0;collapsible=1;marginBottom=0;" parent="WIyWlLk6GJQsqaUBKTNV-1" vertex="1">
          <mxGeometry x="480" y="230" width="160" height="90" as="geometry" />
        </mxCell>
        <mxCell id="c1hgDJfM4Zuwyvj8cAt_-13" value="+ dataUrodzenia:" style="text;strokeColor=none;fillColor=none;align=left;verticalAlign=top;spacingLeft=4;spacingRight=4;overflow=hidden;rotatable=0;points=[[0,0.5],[1,0.5]];portConstraint=eastwest;" parent="c1hgDJfM4Zuwyvj8cAt_-12" vertex="1">
          <mxGeometry y="26" width="160" height="26" as="geometry" />
        </mxCell>
        <mxCell id="c1hgDJfM4Zuwyvj8cAt_-14" value="" style="line;strokeWidth=1;fillColor=none;align=left;verticalAlign=middle;spacingTop=-1;spacingLeft=3;spacingRight=3;rotatable=0;labelPosition=right;points=[];portConstraint=eastwest;" parent="c1hgDJfM4Zuwyvj8cAt_-12" vertex="1">
          <mxGeometry y="52" width="160" height="38" as="geometry" />
        </mxCell>
        <mxCell id="c1hgDJfM4Zuwyvj8cAt_-16" value="" style="endArrow=block;endSize=16;endFill=0;html=1;exitX=0.25;exitY=0;exitDx=0;exitDy=0;" parent="WIyWlLk6GJQsqaUBKTNV-1" source="c1hgDJfM4Zuwyvj8cAt_-8" edge="1">
          <mxGeometry width="160" relative="1" as="geometry">
            <mxPoint x="320" y="210" as="sourcePoint" />
            <mxPoint x="250" y="170" as="targetPoint" />
          </mxGeometry>
        </mxCell>
        <mxCell id="c1hgDJfM4Zuwyvj8cAt_-17" value="" style="endArrow=block;endSize=16;endFill=0;html=1;" parent="WIyWlLk6GJQsqaUBKTNV-1" source="c1hgDJfM4Zuwyvj8cAt_-12" edge="1">
          <mxGeometry width="160" relative="1" as="geometry">
            <mxPoint x="320" y="310" as="sourcePoint" />
            <mxPoint x="380" y="170" as="targetPoint" />
          </mxGeometry>
        </mxCell>
        <mxCell id="c1hgDJfM4Zuwyvj8cAt_-18" value="Samochód" style="swimlane;fontStyle=1;align=center;verticalAlign=top;childLayout=stackLayout;horizontal=1;startSize=26;horizontalStack=0;resizeParent=1;resizeParentMax=0;resizeLast=0;collapsible=1;marginBottom=0;" parent="WIyWlLk6GJQsqaUBKTNV-1" vertex="1">
          <mxGeometry x="700" y="70" width="160" height="150" as="geometry" />
        </mxCell>
        <mxCell id="c1hgDJfM4Zuwyvj8cAt_-19" value="+ marka:&#xa;+ nrRejestracyjny:&#xa;+ typ: &#xa;+ pojemność:&#xa;+ przebieg:" style="text;strokeColor=none;fillColor=none;align=left;verticalAlign=top;spacingLeft=4;spacingRight=4;overflow=hidden;rotatable=0;points=[[0,0.5],[1,0.5]];portConstraint=eastwest;" parent="c1hgDJfM4Zuwyvj8cAt_-18" vertex="1">
          <mxGeometry y="26" width="160" height="94" as="geometry" />
        </mxCell>
        <mxCell id="c1hgDJfM4Zuwyvj8cAt_-20" value="" style="line;strokeWidth=1;fillColor=none;align=left;verticalAlign=middle;spacingTop=-1;spacingLeft=3;spacingRight=3;rotatable=0;labelPosition=right;points=[];portConstraint=eastwest;" parent="c1hgDJfM4Zuwyvj8cAt_-18" vertex="1">
          <mxGeometry y="120" width="160" height="30" as="geometry" />
        </mxCell>
        <mxCell id="c1hgDJfM4Zuwyvj8cAt_-23" value="" style="endArrow=none;html=1;exitX=1.005;exitY=0.72;exitDx=0;exitDy=0;exitPerimeter=0;" parent="WIyWlLk6GJQsqaUBKTNV-1" source="c1hgDJfM4Zuwyvj8cAt_-13" edge="1">
          <mxGeometry width="50" height="50" relative="1" as="geometry">
            <mxPoint x="600" y="370" as="sourcePoint" />
            <mxPoint x="754" y="220" as="targetPoint" />
            <Array as="points">
              <mxPoint x="754" y="275" />
            </Array>
          </mxGeometry>
        </mxCell>
        <mxCell id="c1hgDJfM4Zuwyvj8cAt_-24" value="Zgłoszenie" style="swimlane;fontStyle=1;align=center;verticalAlign=top;childLayout=stackLayout;horizontal=1;startSize=26;horizontalStack=0;resizeParent=1;resizeParentMax=0;resizeLast=0;collapsible=1;marginBottom=0;" parent="WIyWlLk6GJQsqaUBKTNV-1" vertex="1">
          <mxGeometry x="300" y="450" width="160" height="90" as="geometry" />
        </mxCell>
        <mxCell id="c1hgDJfM4Zuwyvj8cAt_-25" value="+ dataPrzyjęcia:&#xa;+ godzPrzyjęcia:" style="text;strokeColor=none;fillColor=none;align=left;verticalAlign=top;spacingLeft=4;spacingRight=4;overflow=hidden;rotatable=0;points=[[0,0.5],[1,0.5]];portConstraint=eastwest;" parent="c1hgDJfM4Zuwyvj8cAt_-24" vertex="1">
          <mxGeometry y="26" width="160" height="44" as="geometry" />
        </mxCell>
        <mxCell id="c1hgDJfM4Zuwyvj8cAt_-26" value="" style="line;strokeWidth=1;fillColor=none;align=left;verticalAlign=middle;spacingTop=-1;spacingLeft=3;spacingRight=3;rotatable=0;labelPosition=right;points=[];portConstraint=eastwest;" parent="c1hgDJfM4Zuwyvj8cAt_-24" vertex="1">
          <mxGeometry y="70" width="160" height="20" as="geometry" />
        </mxCell>
        <mxCell id="c1hgDJfM4Zuwyvj8cAt_-28" value="" style="endArrow=none;html=1;exitX=0.25;exitY=1;exitDx=0;exitDy=0;entryX=1.009;entryY=0.336;entryDx=0;entryDy=0;entryPerimeter=0;" parent="WIyWlLk6GJQsqaUBKTNV-1" source="c1hgDJfM4Zuwyvj8cAt_-12" target="c1hgDJfM4Zuwyvj8cAt_-25" edge="1">
          <mxGeometry width="50" height="50" relative="1" as="geometry">
            <mxPoint x="400" y="370" as="sourcePoint" />
            <mxPoint x="450" y="320" as="targetPoint" />
            <Array as="points">
              <mxPoint x="520" y="491" />
            </Array>
          </mxGeometry>
        </mxCell>
        <mxCell id="c1hgDJfM4Zuwyvj8cAt_-29" value="" style="endArrow=none;html=1;exitX=0.5;exitY=1;exitDx=0;exitDy=0;entryX=0;entryY=0.5;entryDx=0;entryDy=0;" parent="WIyWlLk6GJQsqaUBKTNV-1" source="c1hgDJfM4Zuwyvj8cAt_-8" target="c1hgDJfM4Zuwyvj8cAt_-25" edge="1">
          <mxGeometry width="50" height="50" relative="1" as="geometry">
            <mxPoint x="400" y="370" as="sourcePoint" />
            <mxPoint x="450" y="320" as="targetPoint" />
            <Array as="points">
              <mxPoint x="220" y="498" />
            </Array>
          </mxGeometry>
        </mxCell>
        <mxCell id="c1hgDJfM4Zuwyvj8cAt_-30" value="1" style="text;html=1;strokeColor=none;fillColor=none;align=center;verticalAlign=middle;whiteSpace=wrap;rounded=0;" parent="WIyWlLk6GJQsqaUBKTNV-1" vertex="1">
          <mxGeometry x="220" y="290" width="40" height="30" as="geometry" />
        </mxCell>
        <mxCell id="c1hgDJfM4Zuwyvj8cAt_-31" value="1..*" style="text;html=1;strokeColor=none;fillColor=none;align=center;verticalAlign=middle;whiteSpace=wrap;rounded=0;" parent="WIyWlLk6GJQsqaUBKTNV-1" vertex="1">
          <mxGeometry x="260" y="480" width="40" height="20" as="geometry" />
        </mxCell>
        <mxCell id="c1hgDJfM4Zuwyvj8cAt_-32" value="*" style="text;html=1;strokeColor=none;fillColor=none;align=center;verticalAlign=middle;whiteSpace=wrap;rounded=0;" parent="WIyWlLk6GJQsqaUBKTNV-1" vertex="1">
          <mxGeometry x="460" y="470" width="40" height="20" as="geometry" />
        </mxCell>
        <mxCell id="c1hgDJfM4Zuwyvj8cAt_-33" value="0..1" style="text;html=1;strokeColor=none;fillColor=none;align=center;verticalAlign=middle;whiteSpace=wrap;rounded=0;" parent="WIyWlLk6GJQsqaUBKTNV-1" vertex="1">
          <mxGeometry x="490" y="320" width="30" height="20" as="geometry" />
        </mxCell>
        <mxCell id="c1hgDJfM4Zuwyvj8cAt_-34" value="0..2" style="text;html=1;strokeColor=none;fillColor=none;align=center;verticalAlign=middle;whiteSpace=wrap;rounded=0;" parent="WIyWlLk6GJQsqaUBKTNV-1" vertex="1">
          <mxGeometry x="640" y="260" width="40" height="10" as="geometry" />
        </mxCell>
        <mxCell id="c1hgDJfM4Zuwyvj8cAt_-36" value="1" style="text;html=1;strokeColor=none;fillColor=none;align=center;verticalAlign=middle;whiteSpace=wrap;rounded=0;" parent="WIyWlLk6GJQsqaUBKTNV-1" vertex="1">
          <mxGeometry x="750" y="220" width="40" height="20" as="geometry" />
        </mxCell>
        <mxCell id="c1hgDJfM4Zuwyvj8cAt_-38" value="" style="swimlane;fontStyle=1;align=center;verticalAlign=top;childLayout=stackLayout;horizontal=1;startSize=10;horizontalStack=0;resizeParent=1;resizeParentMax=0;resizeLast=0;collapsible=1;marginBottom=0;" parent="WIyWlLk6GJQsqaUBKTNV-1" vertex="1">
          <mxGeometry x="290" y="321" width="170" height="112" as="geometry" />
        </mxCell>
        <mxCell id="c1hgDJfM4Zuwyvj8cAt_-39" value="+ dataPrzypisania:&#xa;+ dataRealizacji:&#xa;+ godzPrzypisania:&#xa;+ godzRozpoczęciaRealizacji:&#xa;+ godzZakończenieRealizacji:" style="text;strokeColor=none;fillColor=none;align=left;verticalAlign=top;spacingLeft=4;spacingRight=4;overflow=hidden;rotatable=0;points=[[0,0.5],[1,0.5]];portConstraint=eastwest;" parent="c1hgDJfM4Zuwyvj8cAt_-38" vertex="1">
          <mxGeometry y="10" width="170" height="80" as="geometry" />
        </mxCell>
        <mxCell id="c1hgDJfM4Zuwyvj8cAt_-40" value="" style="line;strokeWidth=1;fillColor=none;align=left;verticalAlign=middle;spacingTop=-1;spacingLeft=3;spacingRight=3;rotatable=0;labelPosition=right;points=[];portConstraint=eastwest;" parent="c1hgDJfM4Zuwyvj8cAt_-38" vertex="1">
          <mxGeometry y="90" width="170" height="22" as="geometry" />
        </mxCell>
        <mxCell id="c1hgDJfM4Zuwyvj8cAt_-42" value="" style="endArrow=none;dashed=1;html=1;exitX=1.008;exitY=0.729;exitDx=0;exitDy=0;exitPerimeter=0;" parent="WIyWlLk6GJQsqaUBKTNV-1" source="c1hgDJfM4Zuwyvj8cAt_-39" edge="1">
          <mxGeometry width="50" height="50" relative="1" as="geometry">
            <mxPoint x="464" y="390" as="sourcePoint" />
            <mxPoint x="520" y="390" as="targetPoint" />
          </mxGeometry>
        </mxCell>
        <mxCell id="c1hgDJfM4Zuwyvj8cAt_-51" value="Rejon" style="swimlane;fontStyle=1;align=center;verticalAlign=top;childLayout=stackLayout;horizontal=1;startSize=26;horizontalStack=0;resizeParent=1;resizeParentMax=0;resizeLast=0;collapsible=1;marginBottom=0;" parent="WIyWlLk6GJQsqaUBKTNV-1" vertex="1">
          <mxGeometry x="800" y="256" width="160" height="90" as="geometry" />
        </mxCell>
        <mxCell id="c1hgDJfM4Zuwyvj8cAt_-52" value="+ nazwaRejonu:" style="text;strokeColor=none;fillColor=none;align=left;verticalAlign=top;spacingLeft=4;spacingRight=4;overflow=hidden;rotatable=0;points=[[0,0.5],[1,0.5]];portConstraint=eastwest;" parent="c1hgDJfM4Zuwyvj8cAt_-51" vertex="1">
          <mxGeometry y="26" width="160" height="26" as="geometry" />
        </mxCell>
        <mxCell id="c1hgDJfM4Zuwyvj8cAt_-53" value="" style="line;strokeWidth=1;fillColor=none;align=left;verticalAlign=middle;spacingTop=-1;spacingLeft=3;spacingRight=3;rotatable=0;labelPosition=right;points=[];portConstraint=eastwest;" parent="c1hgDJfM4Zuwyvj8cAt_-51" vertex="1">
          <mxGeometry y="52" width="160" height="38" as="geometry" />
        </mxCell>
        <mxCell id="c1hgDJfM4Zuwyvj8cAt_-54" value="" style="endArrow=none;html=1;entryX=0.992;entryY=0.535;entryDx=0;entryDy=0;entryPerimeter=0;" parent="WIyWlLk6GJQsqaUBKTNV-1" source="c1hgDJfM4Zuwyvj8cAt_-51" target="c1hgDJfM4Zuwyvj8cAt_-14" edge="1">
          <mxGeometry width="50" height="50" relative="1" as="geometry">
            <mxPoint x="600" y="380" as="sourcePoint" />
            <mxPoint x="640" y="290" as="targetPoint" />
          </mxGeometry>
        </mxCell>
        <mxCell id="c1hgDJfM4Zuwyvj8cAt_-56" value="1..*" style="text;html=1;strokeColor=none;fillColor=none;align=center;verticalAlign=middle;whiteSpace=wrap;rounded=0;" parent="WIyWlLk6GJQsqaUBKTNV-1" vertex="1">
          <mxGeometry x="640" y="281" width="40" height="20" as="geometry" />
        </mxCell>
        <mxCell id="c1hgDJfM4Zuwyvj8cAt_-57" value="2..*" style="text;html=1;strokeColor=none;fillColor=none;align=center;verticalAlign=middle;whiteSpace=wrap;rounded=0;" parent="WIyWlLk6GJQsqaUBKTNV-1" vertex="1">
          <mxGeometry x="760" y="281" width="40" height="20" as="geometry" />
        </mxCell>
        <mxCell id="c1hgDJfM4Zuwyvj8cAt_-58" value="" style="endArrow=none;html=1;exitX=1.002;exitY=0.977;exitDx=0;exitDy=0;exitPerimeter=0;" parent="WIyWlLk6GJQsqaUBKTNV-1" source="c1hgDJfM4Zuwyvj8cAt_-25" edge="1">
          <mxGeometry width="50" height="50" relative="1" as="geometry">
            <mxPoint x="570" y="430" as="sourcePoint" />
            <mxPoint x="800" y="330" as="targetPoint" />
            <Array as="points">
              <mxPoint x="550" y="519" />
              <mxPoint x="550" y="330" />
            </Array>
          </mxGeometry>
        </mxCell>
        <mxCell id="c1hgDJfM4Zuwyvj8cAt_-59" value="1..*" style="text;html=1;strokeColor=none;fillColor=none;align=center;verticalAlign=middle;whiteSpace=wrap;rounded=0;" parent="WIyWlLk6GJQsqaUBKTNV-1" vertex="1">
          <mxGeometry x="460" y="500" width="40" height="20" as="geometry" />
        </mxCell>
        <mxCell id="c1hgDJfM4Zuwyvj8cAt_-60" value="*" style="text;html=1;strokeColor=none;fillColor=none;align=center;verticalAlign=middle;whiteSpace=wrap;rounded=0;" parent="WIyWlLk6GJQsqaUBKTNV-1" vertex="1">
          <mxGeometry x="760" y="310" width="40" height="20" as="geometry" />
        </mxCell>
        <mxCell id="c1hgDJfM4Zuwyvj8cAt_-61" value="Ulica " style="swimlane;fontStyle=1;align=center;verticalAlign=top;childLayout=stackLayout;horizontal=1;startSize=26;horizontalStack=0;resizeParent=1;resizeParentMax=0;resizeLast=0;collapsible=1;marginBottom=0;" parent="WIyWlLk6GJQsqaUBKTNV-1" vertex="1">
          <mxGeometry x="600" y="435" width="160" height="90" as="geometry" />
        </mxCell>
        <mxCell id="c1hgDJfM4Zuwyvj8cAt_-62" value="+ nazwaUlicy:" style="text;strokeColor=none;fillColor=none;align=left;verticalAlign=top;spacingLeft=4;spacingRight=4;overflow=hidden;rotatable=0;points=[[0,0.5],[1,0.5]];portConstraint=eastwest;" parent="c1hgDJfM4Zuwyvj8cAt_-61" vertex="1">
          <mxGeometry y="26" width="160" height="26" as="geometry" />
        </mxCell>
        <mxCell id="c1hgDJfM4Zuwyvj8cAt_-63" value="" style="line;strokeWidth=1;fillColor=none;align=left;verticalAlign=middle;spacingTop=-1;spacingLeft=3;spacingRight=3;rotatable=0;labelPosition=right;points=[];portConstraint=eastwest;" parent="c1hgDJfM4Zuwyvj8cAt_-61" vertex="1">
          <mxGeometry y="52" width="160" height="38" as="geometry" />
        </mxCell>
        <mxCell id="c1hgDJfM4Zuwyvj8cAt_-64" value="" style="endArrow=none;html=1;exitX=0.5;exitY=0;exitDx=0;exitDy=0;" parent="WIyWlLk6GJQsqaUBKTNV-1" source="c1hgDJfM4Zuwyvj8cAt_-61" edge="1">
          <mxGeometry width="50" height="50" relative="1" as="geometry">
            <mxPoint x="850" y="420" as="sourcePoint" />
            <mxPoint x="810" y="346" as="targetPoint" />
            <Array as="points">
              <mxPoint x="680" y="390" />
              <mxPoint x="810" y="390" />
            </Array>
          </mxGeometry>
        </mxCell>
        <mxCell id="c1hgDJfM4Zuwyvj8cAt_-65" value="1..*" style="text;html=1;strokeColor=none;fillColor=none;align=center;verticalAlign=middle;whiteSpace=wrap;rounded=0;" parent="WIyWlLk6GJQsqaUBKTNV-1" vertex="1">
          <mxGeometry x="770" y="346" width="40" height="20" as="geometry" />
        </mxCell>
        <mxCell id="c1hgDJfM4Zuwyvj8cAt_-67" value="1..*" style="text;html=1;strokeColor=none;fillColor=none;align=center;verticalAlign=middle;whiteSpace=wrap;rounded=0;" parent="WIyWlLk6GJQsqaUBKTNV-1" vertex="1">
          <mxGeometry x="640" y="415" width="40" height="20" as="geometry" />
        </mxCell>
        <mxCell id="c1hgDJfM4Zuwyvj8cAt_-76" value="Strefa" style="swimlane;fontStyle=1;align=center;verticalAlign=top;childLayout=stackLayout;horizontal=1;startSize=26;horizontalStack=0;resizeParent=1;resizeParentMax=0;resizeLast=0;collapsible=1;marginBottom=0;" parent="WIyWlLk6GJQsqaUBKTNV-1" vertex="1">
          <mxGeometry x="810" y="433" width="160" height="108" as="geometry" />
        </mxCell>
        <mxCell id="c1hgDJfM4Zuwyvj8cAt_-77" value="+ nazwaStrefy:&#xa;+ wielkośćOpłat:" style="text;strokeColor=none;fillColor=none;align=left;verticalAlign=top;spacingLeft=4;spacingRight=4;overflow=hidden;rotatable=0;points=[[0,0.5],[1,0.5]];portConstraint=eastwest;" parent="c1hgDJfM4Zuwyvj8cAt_-76" vertex="1">
          <mxGeometry y="26" width="160" height="44" as="geometry" />
        </mxCell>
        <mxCell id="c1hgDJfM4Zuwyvj8cAt_-78" value="" style="line;strokeWidth=1;fillColor=none;align=left;verticalAlign=middle;spacingTop=-1;spacingLeft=3;spacingRight=3;rotatable=0;labelPosition=right;points=[];portConstraint=eastwest;" parent="c1hgDJfM4Zuwyvj8cAt_-76" vertex="1">
          <mxGeometry y="70" width="160" height="38" as="geometry" />
        </mxCell>
        <mxCell id="c1hgDJfM4Zuwyvj8cAt_-79" value="" style="endArrow=none;html=1;exitX=0.438;exitY=-0.008;exitDx=0;exitDy=0;exitPerimeter=0;entryX=0.5;entryY=1;entryDx=0;entryDy=0;" parent="WIyWlLk6GJQsqaUBKTNV-1" source="c1hgDJfM4Zuwyvj8cAt_-76" target="c1hgDJfM4Zuwyvj8cAt_-51" edge="1">
          <mxGeometry width="50" height="50" relative="1" as="geometry">
            <mxPoint x="660" y="470" as="sourcePoint" />
            <mxPoint x="900" y="350" as="targetPoint" />
          </mxGeometry>
        </mxCell>
        <mxCell id="c1hgDJfM4Zuwyvj8cAt_-80" value="1" style="text;html=1;strokeColor=none;fillColor=none;align=center;verticalAlign=middle;whiteSpace=wrap;rounded=0;" parent="WIyWlLk6GJQsqaUBKTNV-1" vertex="1">
          <mxGeometry x="840" y="346" width="40" height="20" as="geometry" />
        </mxCell>
        <mxCell id="c1hgDJfM4Zuwyvj8cAt_-81" value="1..*" style="text;html=1;strokeColor=none;fillColor=none;align=center;verticalAlign=middle;whiteSpace=wrap;rounded=0;" parent="WIyWlLk6GJQsqaUBKTNV-1" vertex="1">
          <mxGeometry x="840" y="413" width="40" height="20" as="geometry" />
        </mxCell>
        <mxCell id="Q6IAY11lVCIYrbhEWcXM-0" value="korzysta" style="text;html=1;strokeColor=none;fillColor=none;align=center;verticalAlign=middle;whiteSpace=wrap;rounded=0;" vertex="1" parent="WIyWlLk6GJQsqaUBKTNV-1">
          <mxGeometry x="690" y="254.5" width="40" height="21" as="geometry" />
        </mxCell>
        <mxCell id="Q6IAY11lVCIYrbhEWcXM-1" value="obsługuje" style="text;html=1;strokeColor=none;fillColor=none;align=center;verticalAlign=middle;whiteSpace=wrap;rounded=0;" vertex="1" parent="WIyWlLk6GJQsqaUBKTNV-1">
          <mxGeometry x="690" y="281" width="40" height="20" as="geometry" />
        </mxCell>
        <mxCell id="Q6IAY11lVCIYrbhEWcXM-2" value="dotyczy" style="text;html=1;strokeColor=none;fillColor=none;align=center;verticalAlign=middle;whiteSpace=wrap;rounded=0;" vertex="1" parent="WIyWlLk6GJQsqaUBKTNV-1">
          <mxGeometry x="670" y="310" width="40" height="20" as="geometry" />
        </mxCell>
      </root>
    </mxGraphModel>
  </diagram>
</mxfile>
